<?xml version="1.0" encoding="utf-8"?>

<svg version="1.1" id="Layer_1" xmlns="http://www.w3.org/2000/svg" xmlns:xlink="http://www.w3.org/1999/xlink" x="0px" y="0px"
	 viewBox="0 0 200.8 52.9" style="enable-background:new 0 0 200.8 52.9;" xml:space="preserve">
<style type="text/css">	.st0{fill:#565D6B;}
	.st1{fill:#FFFFFF;}
	.st2{fill:#F26A28;}
	.st3{fill:#22543F;}
</style>
<circle class="st0" cx="78.1" cy="26.4" r="26.4"/>
<path class="st1" d="M60.6,27.3c0,0-2.1,7-2.1,10.5S66,44.5,70.9,43c5-1.4,23.8-15.9,24.4-17.3c0.7-1.7,4.1-11.8-7.4-12
	C76.3,13.5,60.6,27.3,60.6,27.3z"/>
<path class="st2" d="M57.7,34c0,0-2.3-5.8,2.1-10.1S74.9,11.1,84.1,12c13,1.2,11.4,5.4,11.4,5.4s-19,7.1-22.6,17.8
	C70.9,41.5,58.5,40.4,57.7,34z"/>
<path class="st3" d="M66.8,18.1c0,0,14.8,1.1,15.1,9.3c0.3,8.2,0.6,8.7,0.6,8.7l0,0c1-0.5,6-4.2,6.8-5.1l0,0c0,0,0.6-9.6-1.5-11.6
	c-2.2-2-9.6-5.7-14.4-5.1C71.2,14.9,66.8,18.1,66.8,18.1z"/>
<g>
	<path class="st1" d="M112.3,25.5h14.5v0.9c0,2.9-1.2,5.4-3.6,7.4c-2.4,2-5.3,3-8.7,3h-2.1v-2.2h2.1c2.6,0,4.8-0.7,6.7-2
		c1.9-1.3,3-3,3.3-5h-12.2V25.5z M122.5,21.8c-1.3-0.4-2.6-0.3-3.9,0.2c-1.3,0.6-2.2,1.5-2.8,2.7l-2-1c0.9-1.7,2.2-3,3.9-3.8
		c1.8-0.8,3.6-0.9,5.4-0.3l1.2,0.4l-0.6,2.1L122.5,21.8z"/>
	<path class="st1" d="M141.8,35.9h-9.7l0.1,1.6l-2.2,0.1l-1.2-18.9l2.2-0.1l0.9,15.1h6.4V18.9h2.2v14.9h1.3V35.9z"/>
	<path class="st1" d="M157.9,27.7c1,0.8,1.5,1.9,1.5,3.2c0,1.5-0.5,2.7-1.5,3.7c-1.4,1.4-3.4,2.1-5.9,2.1c-0.1,0-0.1,0-0.2,0
		c-1.8,0-3.9-0.5-6.2-1.4l0.8-2.1c2.1,0.8,3.9,1.2,5.5,1.2c2,0,3.5-0.5,4.5-1.5c0.6-0.6,0.9-1.3,0.9-2.2c0-0.6-0.2-1.2-0.7-1.6
		c-0.9-0.8-2.2-1-3.9-0.8c-2.2,0.3-4.4,1.2-6.6,2.6l-0.3,0.2h-2l1.7-9.8l2.2,0.4l-1.2,6.5c2.2-1.1,4.1-1.8,5.9-2.1
		C154.6,26.1,156.5,26.5,157.9,27.7z M156.7,22.2c-4,0-7.7-1.2-11-3.5l1.2-1.8c2.9,2.1,6.2,3.1,9.7,3.1V22.2z"/>
	<path class="st1" d="M178.6,25.1v4.7c0,1.7-0.6,3.2-1.8,4.4c-1.2,1.2-2.6,1.9-4.3,1.9h-0.9v-2.2h0.9c1.1,0,2-0.4,2.8-1.2
		c0.8-0.8,1.1-1.8,1.1-2.8v-2.5h-6.4c-0.8,2.6-2,4.8-3.6,6.4c-1.6,1.6-3.2,2.4-4.9,2.4v-2.2c1.3,0,2.5-0.6,3.5-1.8
		c1-1.1,1.9-2.7,2.6-4.8h-4.8v-2.2h5.5c0.4-1.7,0.6-4.1,0.6-7.3v-0.1h2.2v0.1c0,3.2-0.2,5.7-0.6,7.3H178.6z"/>
	<path class="st1" d="M200.3,33.9v2.2h-11.2c-2,0-3.6-0.7-4.8-2.2c-0.3,0.6-0.6,1-0.9,1.3c-0.8,0.7-1.8,1.1-3,1.1
		c-0.1,0-0.2,0-0.3,0l0.1-2.2c0.8,0,1.4-0.1,1.8-0.5c0.6-0.6,0.9-1.5,0.9-3v-9.5h2.2v8.6c0,1.2,0.4,2.1,1.2,2.9
		c0.8,0.8,1.8,1.2,2.9,1.2H200.3z M183.4,20.6l-0.4-2.1l2.2-0.4l0.4,2.2L183.4,20.6z"/>
</g>
<g>
	<path class="st1" d="M1.5,26.1h17.1v1.1c0,3.4-1.4,6.4-4.3,8.8c-2.9,2.4-6.3,3.6-10.4,3.6H1.5V37h2.5c3,0,5.7-0.8,8-2.4
		c2.3-1.6,3.6-3.6,4-5.9H1.5V26.1z M13.6,21.8c-1.6-0.5-3.1-0.4-4.7,0.3c-1.5,0.7-2.6,1.7-3.4,3.2l-2.3-1.1c1-2.1,2.6-3.5,4.7-4.5
		c2.1-0.9,4.2-1,6.4-0.4l1.5,0.4L15,22.2L13.6,21.8z"/>
	<path class="st1" d="M22.3,17h20.8v12.5H24.9v6.7l3.8-1.3l1,2.4l-7.3,2.6l-0.9-2.4l0.9-0.3V17z M40.5,19.6H24.9v2.6h15.6V19.6z
		 M24.9,26.9h15.6v-2.1H24.9V26.9z"/>
</g>
<rect x="0" y="48" class="st0" width="78.1" height="2"/>
<rect x="97" y="9.1" class="st0" width="103.5" height="2"/>
</svg>
