<svg id="Layer_1" xmlns="http://www.w3.org/2000/svg" viewBox="0 0 200.8 52.9"><style>.st0{fill:#565d6b}.st1{fill:#fff}.st2{fill:#f26a28}.st3{fill:#22543f}</style><circle class="st0" cx="78.1" cy="26.4" r="26.4"/><path class="st1" d="M60.6 27.3s-2.1 7-2.1 10.5S66 44.5 70.9 43c5-1.4 23.8-15.9 24.4-17.3.7-1.7 4.1-11.8-7.4-12-11.6-.2-27.3 13.6-27.3 13.6z"/><path class="st2" d="M57.7 34s-2.3-5.8 2.1-10.1S74.9 11.1 84.1 12c13 1.2 11.4 5.4 11.4 5.4s-19 7.1-22.6 17.8c-2 6.3-14.4 5.2-15.2-1.2z"/><path class="st3" d="M66.8 18.1s14.8 1.1 15.1 9.3c.3 8.2.6 8.7.6 8.7 1-.5 6-4.2 6.8-5.1 0 0 .6-9.6-1.5-11.6-2.2-2-9.6-5.7-14.4-5.1-2.2.6-6.6 3.8-6.6 3.8z"/><path class="st1" d="M112.3 25.5h14.5v.9c0 2.9-1.2 5.4-3.6 7.4-2.4 2-5.3 3-8.7 3h-2.1v-2.2h2.1c2.6 0 4.8-.7 6.7-2 1.9-1.3 3-3 3.3-5h-12.2v-2.1zm10.2-3.7c-1.3-.4-2.6-.3-3.9.2-1.3.6-2.2 1.5-2.8 2.7l-2-1c.9-1.7 2.2-3 3.9-3.8 1.8-.8 3.6-.9 5.4-.3l1.2.4-.6 2.1-1.2-.3zm19.3 14.1h-9.7l.1 1.6-2.2.1-1.2-18.9 2.2-.1.9 15.1h6.4V18.9h2.2v14.9h1.3v2.1zm16.1-8.2c1 .8 1.5 1.9 1.5 3.2 0 1.5-.5 2.7-1.5 3.7-1.4 1.4-3.4 2.1-5.9 2.1h-.2c-1.8 0-3.9-.5-6.2-1.4l.8-2.1c2.1.8 3.9 1.2 5.5 1.2 2 0 3.5-.5 4.5-1.5.6-.6.9-1.3.9-2.2 0-.6-.2-1.2-.7-1.6-.9-.8-2.2-1-3.9-.8-2.2.3-4.4 1.2-6.6 2.6l-.3.2h-2l1.7-9.8 2.2.4-1.2 6.5c2.2-1.1 4.1-1.8 5.9-2.1 2.2 0 4.1.4 5.5 1.6zm-1.2-5.5c-4 0-7.7-1.2-11-3.5l1.2-1.8c2.9 2.1 6.2 3.1 9.7 3.1v2.2zm21.9 2.9v4.7c0 1.7-.6 3.2-1.8 4.4-1.2 1.2-2.6 1.9-4.3 1.9h-.9v-2.2h.9c1.1 0 2-.4 2.8-1.2.8-.8 1.1-1.8 1.1-2.8v-2.5H170c-.8 2.6-2 4.8-3.6 6.4-1.6 1.6-3.2 2.4-4.9 2.4V34c1.3 0 2.5-.6 3.5-1.8 1-1.1 1.9-2.7 2.6-4.8h-4.8v-2.2h5.5c.4-1.7.6-4.1.6-7.3v-.1h2.2v.1c0 3.2-.2 5.7-.6 7.3h8.1zm21.7 8.8v2.2h-11.2c-2 0-3.6-.7-4.8-2.2-.3.6-.6 1-.9 1.3-.8.7-1.8 1.1-3 1.1h-.3l.1-2.2c.8 0 1.4-.1 1.8-.5.6-.6.9-1.5.9-3v-9.5h2.2v8.6c0 1.2.4 2.1 1.2 2.9.8.8 1.8 1.2 2.9 1.2h11.1zm-16.9-13.3l-.4-2.1 2.2-.4.4 2.2-2.2.3zM1.5 26.1h17.1v1.1c0 3.4-1.4 6.4-4.3 8.8-2.9 2.4-6.3 3.6-10.4 3.6H1.5V37H4c3 0 5.7-.8 8-2.4 2.3-1.6 3.6-3.6 4-5.9H1.5v-2.6zm12.1-4.3c-1.6-.5-3.1-.4-4.7.3-1.5.7-2.6 1.7-3.4 3.2l-2.3-1.1c1-2.1 2.6-3.5 4.7-4.5 2.1-.9 4.2-1 6.4-.4l1.5.4-.8 2.5-1.4-.4zm8.7-4.8h20.8v12.5H24.9v6.7l3.8-1.3 1 2.4-7.3 2.6-.9-2.4.9-.3V17zm18.2 2.6H24.9v2.6h15.6v-2.6zm-15.6 7.3h15.6v-2.1H24.9v2.1z"/><path class="st0" d="M0 48h78.1v2H0zM97 9.1h103.5v2H97z"/></svg>